<svg xmlns="http://www.w3.org/2000/svg" viewBox="0 0 640 440"><rect width="640" height="440" fill="#f9f7f0"/><g fill="none" stroke="#18211d" stroke-width="3"><path d="M175 145h160m74 32 86 70M409 291l-86 59M248 350l-86-61M135 244l40-69"/><path d="m330 133 17 12-17 12m151 77 17 12-17 12m-160 80 17 12-17 12m-177-80 17 12-17 12m27-119 17 12-17 12"/></g><g fill="#b8d5e5" stroke="#18211d" stroke-width="3"><rect x="180" y="100" width="150" height="66" rx="33"/><rect x="408" y="218" width="150" height="66" rx="33"/><rect x="247" y="308" width="150" height="66" rx="33"/><rect x="80" y="218" width="150" height="66" rx="33"/></g><g fill="#18211d" font-family="Arial,sans-serif" font-size="17" font-weight="700" text-anchor="middle"><text x="255" y="140">WORK ENTERS</text><text x="483" y="258">BOTTLENECK</text><text x="322" y="348">REWORK</text><text x="155" y="258">QUEUE</text></g></svg>
